<svg xmlns="http://www.w3.org/2000/svg" width="256" height="256" viewBox="0 0 100 100"><rect width="100" height="100" rx="20" fill="#f09666"></rect><path d="M51.99 27.96L44.33 72.04L38.82 72.04L23.08 37.83L17.14 72.04L11.42 72.04L19.08 27.96L24.59 27.96L40.36 62.32L46.33 27.96L51.99 27.96ZM79.36 60.69L79.36 60.69Q80.02 55.84 74.33 53.60L74.33 53.60L69.09 51.70L67.34 50.94Q58.50 46.91 59.07 39.62L59.07 39.62Q59.38 35.95 61.59 33.14Q63.80 30.32 67.44 28.79Q71.09 27.26 75.21 27.36L75.21 27.36Q79.20 27.45 82.34 29.14Q85.47 30.84 87.11 33.88Q88.74 36.92 88.56 40.74L88.56 40.74L82.84 40.71Q83.14 36.65 81.02 34.42Q78.90 32.20 74.97 32.14L74.97 32.14Q70.82 32.08 68.03 34.08Q65.25 36.07 64.82 39.53L64.82 39.53Q64.22 44.04 70.36 46.37L70.36 46.37L74.88 47.97L77.15 48.94Q85.68 52.88 85.05 60.63L85.05 60.63Q84.71 64.35 82.53 67.06Q80.36 69.77 76.62 71.25Q72.88 72.74 68.58 72.64L68.58 72.64Q64.43 72.61 61.00 70.87Q57.56 69.13 55.77 66.11Q53.99 63.08 54.20 59.23L54.20 59.23L59.89 59.26Q59.62 63.20 62.02 65.52Q64.43 67.83 68.82 67.89Q73.21 67.95 76.06 65.98Q78.90 64.02 79.36 60.69Z" fill="#fff"></path></svg>